<?xml version="1.0" encoding="iso-8859-1"?>
<!-- Uploaded to: SVG Repo, www.svgrepo.com, Generator: SVG Repo Mixer Tools -->
<svg height="800px" width="800px" version="1.1" id="Layer_1" xmlns="http://www.w3.org/2000/svg" xmlns:xlink="http://www.w3.org/1999/xlink" 
	 viewBox="0 0 512 512" xml:space="preserve">
<circle style="fill:#E5E5E5;" cx="411.826" cy="122.435" r="44.522"/>
<path style="fill:#87DFD6;" d="M362.863,220.383c9.828,13.078,17.308,28.026,21.805,44.21c21.048,9.951,33.558,22.406,33.558,35.929
	s-12.511,25.978-33.558,35.929c-29.651,14.024-76.255,23.062-128.668,23.062s-99.016-9.038-128.668-23.062
	c-21.048-9.951-33.558-22.406-33.558-35.929s12.511-25.978,33.558-35.929c4.497-16.184,11.976-31.132,21.805-44.21
	c-81.697,14.436-138.006,44.9-138.006,80.139s56.309,65.703,138.006,80.139c32.289,5.699,68.552,8.904,106.863,8.904
	s74.574-3.206,106.863-8.904c81.697-14.436,138.006-44.9,138.006-80.139S444.561,234.819,362.863,220.383z"/>
<g>
	<path style="fill:#4A7DBA;" d="M148.597,221.118c-0.488,0.659-0.974,1.32-1.449,1.988c-0.144,0.2-0.282,0.405-0.424,0.606
		c-0.467,0.664-0.933,1.331-1.389,2.003c-0.142,0.211-0.282,0.425-0.424,0.637c-0.446,0.667-0.889,1.337-1.325,2.011
		c-0.147,0.228-0.291,0.46-0.436,0.689c-0.42,0.661-0.836,1.325-1.244,1.993c-0.154,0.252-0.303,0.504-0.454,0.756
		c-0.392,0.652-0.781,1.307-1.162,1.966c-0.157,0.273-0.312,0.547-0.467,0.82c-0.365,0.642-0.727,1.286-1.081,1.934
		c-0.164,0.298-0.324,0.599-0.485,0.899c-0.335,0.624-0.668,1.252-0.993,1.882c-0.17,0.329-0.338,0.661-0.506,0.993
		c-0.305,0.603-0.607,1.209-0.903,1.818c-0.178,0.365-0.353,0.731-0.528,1.097c-0.273,0.574-0.542,1.151-0.807,1.73
		c-0.187,0.41-0.373,0.819-0.557,1.23c-0.238,0.535-0.473,1.072-0.705,1.611c-0.198,0.461-0.394,0.922-0.588,1.385
		c-0.203,0.486-0.401,0.975-0.599,1.465c-0.21,0.522-0.419,1.045-0.622,1.569c-0.164,0.421-0.322,0.844-0.481,1.266
		c-0.226,0.602-0.452,1.205-0.669,1.811c-0.119,0.331-0.234,0.662-0.351,0.994c-0.247,0.705-0.491,1.409-0.727,2.118
		c-0.07,0.209-0.136,0.42-0.205,0.63c-0.273,0.836-0.541,1.674-0.797,2.518c-0.013,0.042-0.024,0.085-0.038,0.127
		c-0.294,0.972-0.579,1.947-0.85,2.926c-0.001,0-0.002,0.001-0.003,0.001c-3.186,11.435-4.894,23.483-4.894,35.931
		s1.709,24.496,4.894,35.928c0.001,0,0.002,0.001,0.003,0.001c29.651,14.024,76.255,23.062,128.668,23.062
		s99.016-9.038,128.668-23.062c0.001,0,0.002-0.001,0.003-0.001c3.186-11.432,4.894-23.48,4.894-35.928s-1.709-24.496-4.894-35.928
		c-0.001,0-0.002-0.001-0.003-0.001c-0.273-0.981-0.557-1.956-0.85-2.926c-0.012-0.042-0.025-0.085-0.038-0.127
		c-0.256-0.844-0.524-1.682-0.797-2.518c-0.069-0.209-0.135-0.421-0.205-0.63c-0.235-0.709-0.48-1.415-0.727-2.118
		c-0.117-0.332-0.232-0.663-0.351-0.994c-0.218-0.605-0.443-1.209-0.669-1.811c-0.159-0.423-0.318-0.845-0.481-1.266
		c-0.204-0.525-0.413-1.047-0.622-1.569c-0.197-0.49-0.395-0.978-0.599-1.465c-0.193-0.463-0.39-0.924-0.588-1.385
		c-0.232-0.539-0.466-1.076-0.705-1.611c-0.184-0.411-0.368-0.821-0.557-1.23c-0.265-0.579-0.534-1.155-0.807-1.73
		c-0.175-0.366-0.349-0.732-0.528-1.097c-0.296-0.609-0.598-1.214-0.903-1.818c-0.168-0.332-0.335-0.663-0.506-0.993
		c-0.326-0.631-0.658-1.258-0.993-1.882c-0.161-0.301-0.322-0.601-0.485-0.899c-0.355-0.649-0.717-1.292-1.081-1.934
		c-0.156-0.274-0.309-0.548-0.467-0.82c-0.381-0.66-0.77-1.313-1.162-1.966c-0.151-0.252-0.302-0.505-0.454-0.756
		c-0.409-0.669-0.825-1.332-1.244-1.993c-0.146-0.229-0.289-0.461-0.436-0.689c-0.434-0.676-0.878-1.345-1.325-2.011
		c-0.141-0.211-0.28-0.426-0.424-0.637c-0.456-0.673-0.922-1.339-1.389-2.003c-0.142-0.201-0.28-0.405-0.424-0.605
		c-0.476-0.668-0.962-1.329-1.449-1.988c-0.142-0.193-0.281-0.386-0.424-0.578C338.618,188.01,299.768,166.957,256,166.957
		s-82.618,21.053-106.979,53.584C148.877,220.731,148.739,220.926,148.597,221.118z"/>
	<path style="fill:#4A7DBA;" d="M256,389.565c-38.309,0-74.569-3.204-106.858-8.903c24.368,32.44,63.162,53.425,106.858,53.425
		s82.49-20.985,106.858-53.425C330.569,386.361,294.309,389.565,256,389.565z"/>
</g>
<path d="M468.009,242.977c-24.663-14.038-58.82-25.331-98.957-32.771c-27.631-34.619-68.571-54.38-113.052-54.38
	c-44.483,0-85.425,19.763-113.052,54.381c-40.137,7.441-74.295,18.734-98.956,32.771C7.632,263.673,0,285.694,0,300.522
	c0,14.828,7.632,36.848,43.991,57.544c24.663,14.038,58.818,25.33,98.955,32.77c27.636,34.618,68.589,54.381,113.054,54.381
	s85.418-19.762,113.053-54.381c40.136-7.441,74.293-18.733,98.956-32.77C504.368,337.37,512,315.35,512,300.522
	C512,285.694,504.368,263.673,468.009,242.977z M400.11,287.679c4.549,4.369,6.985,8.747,6.985,12.842s-2.436,8.474-6.985,12.842
	c0.376-4.263,0.585-8.546,0.585-12.842S400.486,291.942,400.11,287.679z M256,178.087c38.926,0,74.654,17.888,98.038,49.084
	c1.012,1.349,1.986,2.718,2.936,4.1c0.156,0.226,0.314,0.449,0.47,0.678c0.859,1.267,1.684,2.552,2.492,3.846
	c0.219,0.35,0.441,0.697,0.657,1.051l0.076,0.127c0.722,1.185,1.417,2.385,2.097,3.593c0.245,0.433,0.489,0.865,0.732,1.31
	l0.103,0.191c0.633,1.163,1.244,2.336,1.839,3.518c0.236,0.467,0.47,0.936,0.697,1.401l0.058,0.12
	c0.6,1.237,1.179,2.483,1.736,3.739c0.198,0.443,0.392,0.888,0.583,1.333c0.001,0.003,0.003,0.007,0.004,0.011
	c0.589,1.37,1.155,2.75,1.693,4.143c0.118,0.304,0.233,0.609,0.348,0.915l0.012,0.033c0.583,1.549,1.142,3.109,1.663,4.685
	l0.128,0.394c0.562,1.723,1.093,3.459,1.579,5.212c0.001,0.003,0.002,0.007,0.003,0.01c0.019,0.069,0.039,0.138,0.06,0.207
	c2.938,10.618,4.429,21.63,4.429,32.732c0,9.45-1.08,18.835-3.212,27.965c-0.174,0.073-0.343,0.149-0.518,0.224
	c-0.429,0.181-0.864,0.359-1.299,0.539c-0.523,0.215-1.048,0.43-1.581,0.642c-0.45,0.179-0.905,0.357-1.36,0.533
	c-0.533,0.207-1.069,0.413-1.609,0.617c-0.469,0.176-0.941,0.351-1.415,0.525c-0.543,0.199-1.091,0.397-1.643,0.593
	c-0.484,0.173-0.971,0.343-1.46,0.513c-0.557,0.193-1.116,0.383-1.681,0.572c-0.5,0.168-1.001,0.335-1.506,0.501
	c-0.568,0.186-1.142,0.37-1.717,0.552c-0.512,0.162-1.025,0.325-1.544,0.485c-0.583,0.18-1.173,0.357-1.763,0.534
	c-0.523,0.157-1.046,0.314-1.575,0.469c-0.597,0.174-1.201,0.345-1.804,0.516c-0.535,0.151-1.069,0.304-1.608,0.452
	c-0.612,0.168-1.232,0.334-1.851,0.499c-0.543,0.145-1.083,0.292-1.632,0.434c-0.629,0.164-1.266,0.323-1.901,0.482
	c-0.551,0.139-1.097,0.279-1.653,0.415c-0.649,0.159-1.306,0.313-1.961,0.469c-0.553,0.131-1.101,0.265-1.658,0.393
	c-0.708,0.164-1.426,0.322-2.142,0.48c-0.512,0.114-1.018,0.23-1.534,0.343c-1.089,0.236-2.188,0.465-3.292,0.692
	c-0.558,0.115-1.12,0.225-1.681,0.337c-0.836,0.167-1.672,0.334-2.516,0.495c-0.558,0.106-1.123,0.207-1.684,0.312
	c-0.723,0.134-1.444,0.269-2.173,0.4c-0.598,0.107-1.203,0.208-1.804,0.312c-0.701,0.121-1.4,0.244-2.107,0.361
	c-0.62,0.104-1.247,0.201-1.871,0.302c-0.696,0.112-1.391,0.225-2.091,0.333c-0.637,0.098-1.279,0.193-1.919,0.287
	c-0.696,0.104-1.392,0.208-2.093,0.307c-0.648,0.092-1.3,0.181-1.951,0.27c-0.703,0.097-1.406,0.193-2.113,0.286
	c-0.654,0.086-1.311,0.169-1.969,0.252c-0.711,0.089-1.424,0.178-2.139,0.265c-0.659,0.079-1.321,0.156-1.983,0.232
	c-0.72,0.082-1.441,0.165-2.165,0.244c-0.666,0.072-1.333,0.144-2.002,0.213c-0.729,0.076-1.46,0.15-2.193,0.223
	c-0.664,0.066-1.329,0.129-1.996,0.191c-0.746,0.07-1.494,0.137-2.242,0.203c-0.663,0.058-1.328,0.116-1.993,0.17
	c-0.754,0.062-1.51,0.121-2.267,0.18c-0.668,0.051-1.336,0.102-2.006,0.15c-0.762,0.056-1.528,0.107-2.294,0.158
	c-0.667,0.045-1.333,0.089-2.002,0.13c-0.779,0.048-1.56,0.092-2.342,0.136c-0.659,0.037-1.318,0.075-1.978,0.109
	c-0.801,0.041-1.605,0.078-2.408,0.115c-0.647,0.03-1.292,0.061-1.94,0.088c-0.83,0.034-1.663,0.062-2.494,0.092
	c-0.626,0.022-1.249,0.047-1.875,0.066c-0.88,0.027-1.763,0.048-2.646,0.07c-0.581,0.014-1.16,0.032-1.742,0.043
	c-0.968,0.02-1.939,0.033-2.911,0.047c-0.502,0.007-1.004,0.018-1.506,0.022c-1.474,0.014-2.946,0.022-4.421,0.022
	s-2.947-0.008-4.418-0.023c-0.503-0.006-1.004-0.016-1.506-0.022c-0.971-0.013-1.942-0.027-2.911-0.047
	c-0.582-0.012-1.161-0.029-1.742-0.043c-0.883-0.022-1.765-0.042-2.646-0.07c-0.627-0.02-1.25-0.043-1.875-0.066
	c-0.833-0.029-1.665-0.058-2.494-0.092c-0.648-0.027-1.293-0.058-1.94-0.088c-0.804-0.037-1.607-0.073-2.408-0.115
	c-0.661-0.034-1.319-0.071-1.978-0.109c-0.781-0.045-1.563-0.088-2.342-0.136c-0.669-0.041-1.336-0.086-2.002-0.13
	c-0.766-0.051-1.53-0.102-2.294-0.158c-0.67-0.048-1.338-0.099-2.006-0.15c-0.757-0.058-1.513-0.118-2.267-0.18
	c-0.666-0.056-1.33-0.112-1.993-0.17c-0.749-0.066-1.496-0.132-2.241-0.203c-0.668-0.062-1.333-0.126-1.998-0.191
	c-0.732-0.072-1.463-0.146-2.192-0.221c-0.669-0.07-1.337-0.14-2.002-0.213c-0.723-0.079-1.445-0.16-2.165-0.244
	c-0.662-0.076-1.325-0.152-1.983-0.232c-0.715-0.086-1.426-0.175-2.137-0.265c-0.658-0.082-1.316-0.166-1.97-0.252
	c-0.71-0.094-1.417-0.19-2.124-0.287c-0.646-0.089-1.292-0.177-1.933-0.268c-0.709-0.101-1.415-0.207-2.119-0.312
	c-0.632-0.094-1.264-0.187-1.893-0.284c-0.71-0.109-1.415-0.224-2.119-0.336c-0.616-0.099-1.233-0.196-1.845-0.298
	c-0.717-0.119-1.426-0.243-2.137-0.366c-0.592-0.102-1.187-0.203-1.775-0.307c-0.74-0.132-1.474-0.269-2.208-0.406
	c-0.55-0.102-1.104-0.201-1.652-0.305c-0.865-0.165-1.721-0.336-2.577-0.508c-0.498-0.099-0.997-0.197-1.491-0.298
	c-1.151-0.236-2.296-0.475-3.43-0.721c-0.486-0.106-0.965-0.216-1.449-0.324c-0.744-0.165-1.49-0.329-2.226-0.499
	c-0.543-0.126-1.077-0.255-1.616-0.383c-0.669-0.158-1.34-0.315-2.001-0.477c-0.548-0.135-1.087-0.273-1.63-0.41
	c-0.643-0.163-1.288-0.323-1.924-0.487c-0.541-0.14-1.074-0.285-1.611-0.429c-0.628-0.167-1.256-0.335-1.875-0.505
	c-0.531-0.147-1.056-0.296-1.582-0.445c-0.612-0.174-1.225-0.347-1.831-0.523c-0.522-0.152-1.038-0.307-1.555-0.463
	c-0.597-0.179-1.192-0.358-1.782-0.54c-0.513-0.159-1.022-0.319-1.529-0.481c-0.58-0.185-1.159-0.37-1.732-0.557
	c-0.501-0.164-0.997-0.329-1.493-0.496c-0.568-0.19-1.132-0.383-1.692-0.577c-0.486-0.168-0.969-0.338-1.45-0.51
	c-0.558-0.198-1.112-0.398-1.662-0.6c-0.466-0.171-0.931-0.343-1.39-0.516c-0.549-0.207-1.092-0.415-1.633-0.626
	c-0.45-0.175-0.899-0.349-1.343-0.528c-0.539-0.215-1.07-0.432-1.598-0.65c-0.429-0.177-0.858-0.353-1.281-0.532
	c-0.176-0.075-0.347-0.15-0.523-0.226c-2.131-9.127-3.211-18.511-3.211-27.961c0-11.103,1.489-22.115,4.429-32.732
	c0.02-0.069,0.041-0.138,0.06-0.207c0.001-0.003,0.002-0.007,0.003-0.01c0.486-1.751,1.016-3.485,1.578-5.207l0.131-0.405
	c0.52-1.575,1.079-3.133,1.662-4.681l0.012-0.032c0.116-0.306,0.232-0.613,0.354-0.929c0.536-1.389,1.102-2.767,1.688-4.134
	c0-0.001,0.001-0.002,0.001-0.003c0.19-0.444,0.385-0.889,0.588-1.342c0.555-1.252,1.132-2.493,1.73-3.725l0.057-0.119
	c0.23-0.473,0.465-0.942,0.701-1.409c0.594-1.182,1.205-2.355,1.839-3.518l0.109-0.203c0.238-0.436,0.485-0.87,0.731-1.308
	c0.681-1.21,1.378-2.412,2.101-3.6l0.067-0.112c0.21-0.344,0.426-0.683,0.64-1.025c0.817-1.307,1.65-2.606,2.518-3.886
	c0.148-0.218,0.295-0.425,0.444-0.641c0.956-1.39,1.936-2.768,2.953-4.124C181.343,195.976,217.072,178.087,256,178.087z
	 M111.89,313.364c-4.549-4.369-6.985-8.747-6.985-12.842s2.436-8.474,6.985-12.842c-0.376,4.263-0.585,8.546-0.585,12.842
	S111.514,309.101,111.89,313.364z M256,422.957c-28.278,0-54.88-9.448-76.281-26.582c0.019,0.002,0.038,0.003,0.056,0.006
	c2.747,0.322,5.51,0.62,8.282,0.906c0.765,0.079,1.532,0.154,2.297,0.229c2.162,0.215,4.33,0.418,6.506,0.611
	c0.715,0.063,1.428,0.129,2.144,0.19c2.79,0.238,5.592,0.461,8.406,0.662c0.459,0.033,0.92,0.06,1.379,0.092
	c2.393,0.167,4.794,0.319,7.202,0.461c0.83,0.049,1.662,0.096,2.493,0.141c2.353,0.129,4.714,0.246,7.081,0.349
	c0.538,0.023,1.072,0.051,1.609,0.073c2.856,0.119,5.724,0.218,8.6,0.302c0.727,0.021,1.457,0.037,2.185,0.056
	c2.249,0.058,4.506,0.105,6.767,0.141c0.833,0.013,1.664,0.027,2.499,0.038c2.917,0.037,5.84,0.061,8.774,0.061
	c2.934,0,5.858-0.025,8.774-0.061c0.834-0.01,1.666-0.024,2.499-0.038c2.262-0.037,4.517-0.083,6.767-0.141
	c0.728-0.019,1.458-0.035,2.185-0.056c2.876-0.083,5.744-0.183,8.6-0.302c0.538-0.022,1.072-0.05,1.609-0.073
	c2.367-0.105,4.728-0.221,7.082-0.349c0.831-0.046,1.662-0.092,2.492-0.14c2.41-0.141,4.812-0.295,7.206-0.462
	c0.457-0.032,0.918-0.059,1.376-0.092c2.815-0.203,5.618-0.425,8.409-0.662c0.713-0.06,1.424-0.127,2.135-0.189
	c2.18-0.194,4.354-0.397,6.519-0.612c0.761-0.076,1.524-0.15,2.284-0.228c2.776-0.286,5.543-0.584,8.293-0.907
	c0.017-0.002,0.033-0.003,0.05-0.006C310.88,413.509,284.278,422.957,256,422.957z M456.997,338.719
	c-23.344,13.288-56.564,24.001-96.069,30.98c-30.623,5.404-63.388,8.322-97.499,8.692c-2.47,0.028-4.945,0.043-7.428,0.043
	s-4.959-0.016-7.428-0.042c-34.111-0.37-66.877-3.288-97.498-8.692c-39.506-6.98-72.727-17.693-96.07-30.98
	c-21.114-12.019-32.742-25.584-32.742-38.199s11.628-26.18,32.742-38.197c18.27-10.398,42.587-19.221,71.233-25.911
	c-0.177,0.358-0.336,0.725-0.511,1.084l-0.453,0.942c-0.294,0.619-0.583,1.241-0.872,1.868c-0.01,0.023-0.02,0.046-0.031,0.069
	c-0.337,0.739-0.667,1.481-0.992,2.226c-0.115,0.264-0.232,0.525-0.345,0.789c-0.214,0.498-0.426,0.997-0.636,1.497
	c-0.079,0.189-0.156,0.383-0.235,0.573c-0.257,0.627-0.511,1.253-0.759,1.883c-0.109,0.275-0.221,0.554-0.326,0.825
	c-0.159,0.408-0.314,0.818-0.467,1.228l-0.06,0.16c-0.159,0.424-0.316,0.854-0.473,1.281c-0.152,0.419-0.305,0.836-0.454,1.256
	l-0.176,0.501c-0.267,0.762-0.532,1.526-0.785,2.287l-0.224,0.69c-0.096,0.294-0.189,0.584-0.283,0.877
	c-0.035,0.108-0.075,0.215-0.109,0.323c-29.119,15.061-35.403,31.968-35.403,43.749c0,12.34,6.901,30.305,39.709,45.884
	c0.001,0,0.001,0.001,0.002,0.001c0.072,0.037,0.146,0.071,0.219,0.107c32.424,15.334,81.056,24.13,133.426,24.13
	c13.093,0,25.952-0.55,38.382-1.614c3.285-0.282,6.537-0.601,9.758-0.953c2.684-0.294,5.343-0.612,7.977-0.954
	c1.908-0.247,3.801-0.509,5.681-0.781c2.491-0.362,4.956-0.745,7.396-1.15c0.539-0.089,1.075-0.18,1.612-0.272
	c24.133-4.119,45.61-10.361,62.621-18.406c0.009-0.004,0.017-0.008,0.026-0.012c0.065-0.031,0.13-0.062,0.195-0.095
	c0.001,0,0.001,0,0.002-0.001c32.806-15.579,39.707-33.544,39.707-45.884c0-11.782-6.283-28.689-35.401-43.752
	c-0.06-0.188-0.129-0.373-0.189-0.562c-0.069-0.213-0.134-0.427-0.203-0.64l-0.221-0.681c-0.255-0.767-0.519-1.53-0.788-2.297
	l-0.179-0.511c-0.142-0.403-0.289-0.805-0.436-1.207c-0.163-0.442-0.323-0.882-0.492-1.33l-0.055-0.145
	c-0.155-0.41-0.309-0.819-0.462-1.212c-0.108-0.278-0.22-0.557-0.332-0.835c-0.248-0.63-0.502-1.258-0.759-1.884
	c-0.079-0.193-0.156-0.386-0.236-0.578c-0.209-0.501-0.422-1-0.637-1.499c-0.115-0.268-0.232-0.528-0.347-0.794
	c-0.327-0.75-0.66-1.498-1-2.243c-0.008-0.017-0.014-0.033-0.022-0.049c-0.286-0.623-0.575-1.245-0.875-1.875l-0.451-0.937
	c-0.173-0.357-0.332-0.721-0.508-1.077c28.645,6.691,52.963,15.512,71.233,25.911c21.115,12.018,32.742,25.583,32.742,38.197
	S478.111,326.702,456.997,338.719z"/>
<path d="M411.826,178.087c30.687,0,55.652-24.966,55.652-55.652s-24.966-55.652-55.652-55.652s-55.652,24.966-55.652,55.652
	S381.139,178.087,411.826,178.087z M411.826,89.043c18.412,0,33.391,14.979,33.391,33.391s-14.979,33.391-33.391,33.391
	s-33.391-14.979-33.391-33.391S393.414,89.043,411.826,89.043z"/>
<path d="M173.316,265.624c1.747,1.008,3.655,1.487,5.54,1.487c3.842,0,7.583-1.992,9.651-5.546
	c3.119-5.264,1.404-12.064-3.85-15.216c-5.269-3.162-12.108-1.455-15.271,3.818l-0.164,0.279
	C166.157,255.771,167.995,262.555,173.316,265.624z"/>
<path d="M197.106,244.87c2.617,0,5.245-0.918,7.361-2.785c14.23-12.56,32.531-19.476,51.534-19.476c6.147,0,11.13-4.983,11.13-11.13
	c0-6.147-4.983-11.13-11.13-11.13c-24.431,0-47.964,8.895-66.264,25.046c-4.609,4.068-5.048,11.101-0.979,15.711
	C190.956,243.597,194.023,244.87,197.106,244.87z"/>
</svg>